<svg width="1440" height="1024" viewBox="0 0 1440 1024" fill="none" xmlns="http://www.w3.org/2000/svg">
<g clip-path="url(#clip0_0_36)">
<rect width="1440" height="1024" fill="#FFF9F3"/>
<g clip-path="url(#clip1_0_36)">
<path d="M286.361 110.36C260.824 96.8249 251.063 65.0914 264.572 39.5048C278.081 13.9181 309.753 4.13766 335.29 17.6728L385.065 -76.589C308.121 -115.983 213.618 -86.2786 173.061 -9.48838C132.534 67.3018 161.214 162.29 237.01 203.865L286.361 110.39V110.36Z" fill="#EEE6D2" fill-opacity="0.5"/>
<path d="M371.284 498.974C400.676 498.974 424.504 475.101 424.504 445.651C424.504 416.202 400.676 392.328 371.284 392.328C341.891 392.328 318.064 416.202 318.064 445.651C318.064 475.101 341.891 498.974 371.284 498.974Z" fill="#EEE6D2" fill-opacity="0.5"/>
<path d="M464.033 297.339C507.647 297.339 543.002 261.915 543.002 218.218C543.002 174.52 507.647 139.096 464.033 139.096C420.42 139.096 385.065 174.52 385.065 218.218C385.065 261.915 420.42 297.339 464.033 297.339Z" fill="#EEE6D2" fill-opacity="0.5"/>
<path d="M253.886 388.458L215.637 288.935L-28.966 383.306L9.2828 482.829L253.886 388.458Z" fill="#EEE6D2" fill-opacity="0.5"/>
<path d="M130.781 570.072C45.1031 570.072 -24.3459 639.655 -24.3459 725.499C-24.3459 811.343 45.1031 880.927 130.781 880.927C216.459 880.927 285.908 811.343 285.908 725.499C285.908 639.655 216.459 570.072 130.781 570.072ZM133.531 777.066C105.123 777.066 82.1244 753.993 82.1244 725.56C82.1244 697.127 105.153 674.053 133.531 674.053C161.909 674.053 184.938 697.127 184.938 725.56C184.938 753.993 161.909 777.066 133.531 777.066Z" fill="#EEE6D2" fill-opacity="0.5"/>
<path d="M474.127 585.06C497.67 601.866 503.14 634.629 486.367 658.187C469.594 681.775 436.895 687.256 413.382 670.45L351.579 757.293C422.66 806.559 520.245 789.663 570.564 718.929C620.883 648.194 605.017 550.238 535.386 498.974L474.127 585.06Z" fill="#EEE6D2" fill-opacity="0.5"/>
<path d="M328.218 1064C371.831 1064 407.187 1028.58 407.187 984.878C407.187 941.18 371.831 905.756 328.218 905.756C284.605 905.756 249.249 941.18 249.249 984.878C249.249 1028.58 284.605 1064 328.218 1064Z" fill="#EEE6D2" fill-opacity="0.5"/>
</g>
<g clip-path="url(#clip2_0_36)">
<path d="M1177.36 110.36C1151.82 96.8249 1142.06 65.0914 1155.57 39.5048C1169.08 13.9181 1200.75 4.13766 1226.29 17.6728L1276.06 -76.589C1199.12 -115.983 1104.62 -86.2786 1064.06 -9.48838C1023.53 67.3018 1052.21 162.29 1128.01 203.865L1177.36 110.39V110.36Z" fill="#EEE6D2" fill-opacity="0.5"/>
<path d="M1262.28 498.974C1291.68 498.974 1315.5 475.101 1315.5 445.651C1315.5 416.202 1291.68 392.328 1262.28 392.328C1232.89 392.328 1209.06 416.202 1209.06 445.651C1209.06 475.101 1232.89 498.974 1262.28 498.974Z" fill="#EEE6D2" fill-opacity="0.5"/>
<path d="M1355.03 297.339C1398.65 297.339 1434 261.915 1434 218.218C1434 174.52 1398.65 139.096 1355.03 139.096C1311.42 139.096 1276.06 174.52 1276.06 218.218C1276.06 261.915 1311.42 297.339 1355.03 297.339Z" fill="#EEE6D2" fill-opacity="0.5"/>
<path d="M1144.89 388.458L1106.64 288.935L862.034 383.306L900.283 482.829L1144.89 388.458Z" fill="#EEE6D2" fill-opacity="0.5"/>
<path d="M1021.78 570.072C936.103 570.072 866.654 639.655 866.654 725.499C866.654 811.343 936.103 880.927 1021.78 880.927C1107.46 880.927 1176.91 811.343 1176.91 725.499C1176.91 639.655 1107.46 570.072 1021.78 570.072ZM1024.53 777.066C996.123 777.066 973.124 753.993 973.124 725.56C973.124 697.127 996.153 674.053 1024.53 674.053C1052.91 674.053 1075.94 697.127 1075.94 725.56C1075.94 753.993 1052.91 777.066 1024.53 777.066Z" fill="#EEE6D2" fill-opacity="0.5"/>
<path d="M1365.13 585.06C1388.67 601.866 1394.14 634.629 1377.37 658.187C1360.59 681.775 1327.89 687.256 1304.38 670.45L1242.58 757.293C1313.66 806.559 1411.25 789.663 1461.56 718.929C1511.88 648.194 1496.02 550.238 1426.39 498.974L1365.13 585.06Z" fill="#EEE6D2" fill-opacity="0.5"/>
<path d="M1219.22 1064C1262.83 1064 1298.19 1028.58 1298.19 984.878C1298.19 941.18 1262.83 905.756 1219.22 905.756C1175.6 905.756 1140.25 941.18 1140.25 984.878C1140.25 1028.58 1175.6 1064 1219.22 1064Z" fill="#EEE6D2" fill-opacity="0.5"/>
</g>
</g>
<defs>
<clipPath id="clip0_0_36">
<rect width="1440" height="1024" fill="white"/>
</clipPath>
<clipPath id="clip1_0_36">
<rect width="629" height="1158" fill="white" transform="translate(-29 -94)"/>
</clipPath>
<clipPath id="clip2_0_36">
<rect width="629" height="1158" fill="white" transform="translate(862 -94)"/>
</clipPath>
</defs>
</svg>
