<svg width="100" height="99" viewBox="0 0 100 99" fill="none" xmlns="http://www.w3.org/2000/svg">
<g clip-path="url(#clip0_85_627)">
<path fill-rule="evenodd" clip-rule="evenodd" d="M89.0347 42.2916C89.0347 30.1022 79.522 20.0011 67.2602 19.1503C61.6214 18.7791 55.9669 18.5625 49.9844 18.5625C44.0019 18.5625 38.3474 18.7636 32.7085 19.1812C20.4624 20.032 10.9497 30.1331 10.9497 42.2916C10.9185 47.0095 10.9185 52.0214 10.9185 56.7394C10.9185 68.9287 20.4467 79.0453 32.7241 79.8806C38.3474 80.2519 44.0019 80.4375 49.9688 80.4375C55.9356 80.4375 61.5901 80.2519 67.2134 79.8497C79.4752 78.9989 88.9878 68.8978 88.9878 56.7394C89.0191 52.0214 89.0191 47.0095 89.0191 42.307L89.0347 42.2916Z" fill="#EFEFD1"/>
<path fill-rule="evenodd" clip-rule="evenodd" d="M34.0986 19.0885C39.2845 18.7482 44.5016 18.578 49.9843 18.578C55.467 18.578 60.6997 18.7482 65.87 19.073L63.6675 27.8128C62.9646 30.5663 60.4654 32.4999 57.6069 32.4999H42.3617C39.5032 32.4999 37.004 30.5663 36.3011 27.8128L34.0986 19.0885Z" fill="#7E6D68"/>
<path fill-rule="evenodd" clip-rule="evenodd" d="M10.9341 41.7656C8.85661 41.7656 6.87285 42.5855 5.40456 44.0241C3.93627 45.4781 3.12402 47.4427 3.12402 49.5C3.12402 51.5573 3.95189 53.5219 5.40456 54.9759C6.87285 56.43 8.85661 57.2344 10.9341 57.2344C10.9497 57.2344 10.9341 41.7656 10.9341 41.7656Z" fill="#7E6D68"/>
<path fill-rule="evenodd" clip-rule="evenodd" d="M89.0504 41.7656C91.1279 41.7656 93.1116 42.5855 94.5799 44.0241C96.0482 45.4781 96.8605 47.4427 96.8605 49.5C96.8605 51.5573 96.0326 53.5219 94.5799 54.9759C93.1116 56.43 91.1279 57.2344 89.0504 57.2344C89.0348 57.2344 89.0504 41.7656 89.0504 41.7656Z" fill="#7E6D68"/>
<path fill-rule="evenodd" clip-rule="evenodd" d="M81.2246 95.8599C81.2246 91.7606 79.5845 87.8316 76.6479 84.9235C73.7113 82.0153 69.7438 80.3911 65.6045 80.3911H34.3643C30.2249 80.3911 26.2418 82.0153 23.3208 84.9235C20.3843 87.8161 18.7441 91.7606 18.7441 95.8599H81.2246Z" fill="#EFEFD1"/>
<path fill-rule="evenodd" clip-rule="evenodd" d="M96.7979 41.843C95.4546 40.4972 93.7676 39.5536 91.9556 39.0586C90.4249 26.7455 80.2718 16.9538 67.4789 16.0566C67.4789 16.0566 67.4737 16.0566 67.4633 16.0566C62.7616 15.7472 58.0287 15.5461 53.124 15.4842V11.5397C54.9828 10.4723 56.2324 8.47688 56.2324 6.1875C56.2324 2.76891 53.4364 0 49.9844 0C46.5323 0 43.7363 2.76891 43.7363 6.1875C43.7363 8.47688 45.0016 10.4723 46.8604 11.5552V15.4997C41.9556 15.5616 37.2071 15.7627 32.4898 16.103C19.7126 17.0002 9.55951 26.7609 8.04436 39.0741C6.23243 39.5691 4.56107 40.5127 3.20212 41.8584C1.15589 43.8848 0 46.6383 0 49.5155C0 52.3927 1.15589 55.1461 3.20212 57.1725C4.54545 58.5028 6.20119 59.4464 7.9975 59.9414C9.13777 69.2227 15.1671 77.0653 23.5395 80.7623C22.6804 81.3656 21.8682 82.0462 21.1028 82.7887C17.5883 86.2692 15.6201 90.9872 15.6201 95.9217C15.6201 97.6387 17.0103 99.0155 18.7441 99.0155H81.2246C82.9585 99.0155 84.3486 97.6387 84.3486 95.9217C84.3486 91.0027 82.3805 86.2692 78.866 82.7887C78.1006 82.0308 77.2727 81.3502 76.398 80.7314C84.7548 77.0344 90.7841 69.2072 91.9244 59.9569C93.752 59.4619 95.4389 58.5183 96.7979 57.157C98.8597 55.1306 100 52.3772 100 49.5C100 46.6228 98.8597 43.8694 96.7979 41.843ZM77.7101 92.8125H22.2587C22.821 90.6933 23.93 88.7288 25.5233 87.1509C27.8663 84.8306 31.0528 83.5312 34.3643 83.5312H65.6045C68.916 83.5312 72.1025 84.8306 74.4455 87.1509C76.0387 88.7288 77.1478 90.6933 77.7101 92.8125ZM85.8794 56.7084C85.8794 67.2736 77.632 76.0289 67.0103 76.7559C61.4652 77.1427 55.8732 77.3438 49.9844 77.3438C44.0956 77.3438 38.5036 77.1581 32.9585 76.8023C22.3055 76.0598 14.0581 67.3045 14.0581 56.7394C14.0581 52.0369 14.0581 47.025 14.0893 42.3225C14.0893 32.175 21.6963 23.6981 31.7245 22.3987L33.2709 28.5553C34.3174 32.6855 38.0662 35.5781 42.3618 35.5781H57.607C61.9025 35.5781 65.6514 32.6855 66.6979 28.5553L68.2599 22.3678C78.288 23.6672 85.9107 32.1595 85.9107 42.307C85.9107 47.0095 85.9107 52.0214 85.8794 56.7239V56.7084Z" fill="#272727"/>
<path fill-rule="evenodd" clip-rule="evenodd" d="M92.1587 46.004C92.1587 48.3243 92.1587 50.6756 92.1431 52.9959C92.2212 52.9186 92.3149 52.8567 92.3774 52.7793C93.2677 51.9131 93.7519 50.722 93.7519 49.5C93.7519 48.2779 93.2677 47.0868 92.3774 46.2206C92.3149 46.1432 92.2368 46.0814 92.1587 46.004Z" fill="#EFEFD1"/>
<path fill-rule="evenodd" clip-rule="evenodd" d="M7.82568 46.035C7.74758 46.0969 7.6851 46.1588 7.62262 46.2207C6.74789 47.0869 6.24805 48.278 6.24805 49.5C6.24805 50.7221 6.74789 51.9132 7.62262 52.7794C7.6851 52.8413 7.74758 52.9032 7.81006 52.965C7.81006 50.6602 7.81006 48.3399 7.82568 46.035Z" fill="#EFEFD1"/>
<path fill-rule="evenodd" clip-rule="evenodd" d="M61.9181 21.9347C58.0287 21.7491 54.0768 21.6562 49.9843 21.6562C45.8918 21.6562 41.9399 21.7491 38.0505 21.9502L39.3314 27.0548C39.675 28.4316 40.9246 29.3906 42.3617 29.3906H57.6069C59.044 29.3906 60.2936 28.4316 60.6372 27.0548L61.9181 21.9502V21.9347Z" fill="#7E6D68"/>
<path d="M40.7372 51.3253C40.7372 47.3498 42.8928 43.8848 46.0949 41.9822V41.4563C46.0949 40.9303 45.6575 40.4972 45.1264 40.4972H31.1621C30.631 40.4972 30.1936 40.9303 30.1936 41.4563V41.9822C33.4113 43.8848 35.5669 47.3498 35.5669 51.3253C35.5669 55.3008 33.4113 58.7813 30.1936 60.6684V61.1944C30.1936 61.7203 30.631 62.1534 31.1621 62.1534H45.1264C45.6575 62.1534 46.0949 61.7203 46.0949 61.1944V60.653C42.8771 58.7503 40.7372 55.2853 40.7372 51.3098V51.3253Z" fill="#272727"/>
<path d="M65.6202 55.4554C67.9164 55.4554 69.7908 53.5992 69.7908 51.3253C69.7908 49.0514 67.9164 47.1951 65.6202 47.1951C65.339 47.1951 65.0579 47.2261 64.7923 47.2725C64.683 47.3034 64.5736 47.3189 64.4487 47.3189C63.5896 47.3189 62.8867 46.6228 62.8867 45.772C62.8867 45.5709 62.8867 45.3698 62.9648 45.1997C62.996 45.014 63.0273 44.8129 63.0273 44.6118C63.0273 42.3379 61.1528 40.4817 58.8567 40.4817C56.5605 40.4817 54.6861 42.3379 54.6861 44.6118C54.6861 44.8593 54.7174 45.1068 54.7642 45.3389H54.7486C54.7798 45.4781 54.8111 45.6173 54.8111 45.772C54.8111 46.6228 54.1082 47.3189 53.2491 47.3189C53.2022 47.3189 53.1553 47.3189 53.1085 47.3189V47.3498C53.1085 47.3498 52.9991 47.3189 52.9523 47.3034C52.9679 47.3034 52.9835 47.3034 52.9991 47.3034C52.9679 47.3034 52.921 47.3034 52.8898 47.2879C52.6243 47.2415 52.3587 47.2106 52.0776 47.2106C49.7814 47.2106 47.907 49.0668 47.907 51.3407C47.907 53.6147 49.7814 55.4709 52.0776 55.4709C52.3587 55.4709 52.6243 55.44 52.8898 55.3936C52.9991 55.3626 53.1085 55.3472 53.2334 55.3472C54.0926 55.3472 54.7955 56.0433 54.7955 56.894C54.7955 57.0333 54.7642 57.1725 54.733 57.3117H54.7486C54.7017 57.5592 54.6705 57.7912 54.6705 58.0387C54.6705 60.3126 56.5449 62.1689 58.8411 62.1689C61.1372 62.1689 63.0116 60.3126 63.0116 58.0387C63.0116 57.884 62.9804 57.7293 62.9648 57.5747C62.8867 57.2498 62.8711 57.1261 62.8711 56.894C62.8711 56.0433 63.574 55.3472 64.4331 55.3472C64.5268 55.3472 64.6361 55.3472 64.7298 55.3781C65.011 55.4245 65.3078 55.4554 65.6202 55.4554Z" fill="#272727"/>
</g>
<defs>
<clipPath id="clip0_85_627">
<rect width="100" height="99" fill="white"/>
</clipPath>
</defs>
</svg>
