<svg width="27" height="30" viewBox="0 0 27 30" fill="none" xmlns="http://www.w3.org/2000/svg">
<g clip-path="url(#clip0_87_1906)">
<path fill-rule="evenodd" clip-rule="evenodd" d="M22.8748 24.0007H19.125C19.0273 24.0007 18.9302 24.0457 18.8627 24.1132C18.7875 24.1807 18.7502 24.2784 18.7502 24.3754V25.8749C18.7502 25.9726 18.7952 26.0696 18.8627 26.1371C18.9302 26.2123 19.028 26.2496 19.125 26.2496H22.8748C22.9725 26.2496 23.0695 26.2046 23.137 26.1371C23.2123 26.0696 23.2495 25.9719 23.2495 25.8749V24.3754C23.2495 24.2777 23.2045 24.1807 23.137 24.1132C23.0695 24.038 22.9718 24.0007 22.8748 24.0007Z" fill="#FC8F54"/>
<path fill-rule="evenodd" clip-rule="evenodd" d="M26.3398 15.6625C25.92 15.2429 25.342 15.0024 24.75 15.0024H2.25C1.65023 15.0024 1.08 15.2422 0.660234 15.6625C0.240469 16.0829 0 16.6601 0 17.252V27.7497C0 28.3501 0.239766 28.9202 0.660234 29.3399C1.08 29.7596 1.65797 30 2.25 30H24.75C25.3498 30 25.92 29.7603 26.3398 29.3399C26.7595 28.9195 27 28.3423 27 27.7504V17.2527C27 16.6531 26.7602 16.0829 26.3398 15.6632V15.6625ZM24.75 25.8756C24.75 26.3782 24.5552 26.8506 24.2023 27.2028C23.85 27.555 23.3698 27.7504 22.8748 27.7504H19.125C18.6223 27.7504 18.1498 27.5557 17.7975 27.2028C17.4452 26.8506 17.2498 26.3705 17.2498 25.8756V24.3761C17.2498 23.8734 17.4445 23.401 17.7975 23.0488C18.1505 22.6966 18.63 22.5012 19.125 22.5012H22.8748C23.3775 22.5012 23.85 22.6959 24.2023 23.0488C24.5545 23.401 24.75 23.8812 24.75 24.3761V25.8756Z" fill="#7E6D68"/>
<path fill-rule="evenodd" clip-rule="evenodd" d="M21.7576 6.00412C21.3448 6.00412 21.0073 6.33382 21.0073 6.74648C21.0073 6.94894 21.0826 7.13663 21.2246 7.27864C21.3666 7.42064 21.5544 7.50359 21.7569 7.50359H22.4994C22.7019 7.50359 22.8896 7.58584 23.0316 7.72082C23.1744 7.86352 23.2489 8.05052 23.2489 8.25298V13.5022C23.2489 13.9148 23.5864 14.2523 23.9991 14.2523C24.4119 14.2523 24.7494 13.9148 24.7494 13.5022V8.25298C24.7494 7.65333 24.5096 7.08321 24.0891 6.66352C23.6694 6.24384 23.0914 6.00342 22.4994 6.00342H21.7569L21.7576 6.00412Z" fill="#7E6D68"/>
<path fill-rule="evenodd" clip-rule="evenodd" d="M0 14.0731C0.412734 13.7054 0.945 13.503 1.49977 13.503H9.27703L8.57953 12.348C8.17453 11.6731 7.43977 11.2534 6.65227 11.2534H2.25C1.00477 11.2534 0 12.258 0 13.503V14.0731Z" fill="#7E6D68"/>
<path fill-rule="evenodd" clip-rule="evenodd" d="M4.46271 7.50444H5.24247C5.44497 7.50444 5.6327 7.42219 5.77474 7.28721C5.91747 7.14451 5.992 6.94978 5.992 6.75505C5.992 6.3424 5.6545 6.0127 5.24177 6.0127H4.49927C3.8995 6.0127 3.32927 6.25241 2.9095 6.6728C2.48974 7.09248 2.24927 7.67034 2.24927 8.26226V9.76173C2.24927 10.1744 2.58677 10.5118 2.9995 10.5118C3.41224 10.5118 3.74974 10.1744 3.74974 9.76173V8.26226C3.74974 8.0598 3.832 7.8721 3.967 7.73009C4.102 7.60285 4.27427 7.5199 4.462 7.51287V7.50514L4.46271 7.50444Z" fill="#7E6D68"/>
<path fill-rule="evenodd" clip-rule="evenodd" d="M20.1901 5.77916C20.1599 5.60693 20.0776 5.44173 19.9426 5.32925L18.9899 4.48918L19.0651 3.22169C19.0729 3.04173 19.0279 2.8695 18.9154 2.72679C18.5251 2.20166 18.0604 1.73698 17.5351 1.34683C17.3924 1.24208 17.2201 1.18936 17.0401 1.19709L15.7724 1.27231L14.9322 0.319762C14.8119 0.184788 14.6544 0.102538 14.4822 0.0723099C13.8297 -0.0254054 13.1772 -0.0254054 12.5247 0.0723099C12.3524 0.102538 12.1872 0.184788 12.0747 0.319762L11.2344 1.27231L9.96671 1.19709C9.78671 1.18936 9.61444 1.23435 9.47171 1.34683C8.94648 1.73698 8.48171 2.20166 8.09147 2.72679C7.98671 2.8695 7.93397 3.04173 7.94171 3.22169L8.01694 4.48918L7.06421 5.32925C6.92921 5.44946 6.84694 5.60693 6.81671 5.77916C6.71897 6.43154 6.71897 7.08391 6.81671 7.73628C6.84694 7.90851 6.92921 8.07372 7.06421 8.18619L8.01694 9.02626L7.94171 10.2937C7.93397 10.4737 7.97897 10.6459 8.09147 10.7887C8.48171 11.3138 8.94648 11.7785 9.47171 12.1686C9.61444 12.2734 9.78671 12.3261 9.96671 12.3184L11.2344 12.2431L12.0747 13.1957C12.1949 13.3307 12.3524 13.4129 12.5247 13.4431C13.1772 13.5409 13.8297 13.5409 14.4822 13.4431C14.6544 13.4129 14.8197 13.3307 14.9322 13.1957L15.7724 12.2431L17.0401 12.3184C17.2201 12.3261 17.3924 12.2811 17.5351 12.1686C18.0604 11.7785 18.5251 11.3138 18.9154 10.7887C19.0201 10.6459 19.0729 10.4737 19.0651 10.2937L18.9899 9.02626L19.9426 8.18619C20.0776 8.06598 20.1599 7.90851 20.1901 7.73628C20.2879 7.08391 20.2879 6.43154 20.1901 5.77916ZM13.4999 9.75386C11.8426 9.75386 10.4997 8.41185 10.4997 6.75421C10.4997 5.09656 11.8419 3.75456 13.4999 3.75456C15.1579 3.75456 16.5001 5.09656 16.5001 6.75421C16.5001 8.41185 15.1579 9.75386 13.4999 9.75386Z" fill="#FC8F54"/>
<path fill-rule="evenodd" clip-rule="evenodd" d="M13.5 5.25464C12.6752 5.25464 12.0002 5.92951 12.0002 6.75411C12.0002 7.57872 12.6752 8.25358 13.5 8.25358C14.3248 8.25358 14.9998 7.57872 14.9998 6.75411C14.9998 5.92951 14.3248 5.25464 13.5 5.25464Z" fill="#FC8F54"/>
</g>
<defs>
<clipPath id="clip0_87_1906">
<rect width="27" height="30" fill="white"/>
</clipPath>
</defs>
</svg>
